G75*
%MOIN*%
%OFA0B0*%
%FSLAX24Y24*%
%IPPOS*%
%LPD*%
%AMOC8*
5,1,8,0,0,1.08239X$1,22.5*
%
%ADD10C,0.0000*%
%ADD11R,0.0394X0.0433*%
%ADD12R,0.0433X0.0394*%
%ADD13C,0.0740*%
%ADD14R,0.0315X0.0118*%
%ADD15R,0.0118X0.0315*%
%ADD16C,0.0160*%
%ADD17C,0.0260*%
%ADD18C,0.0100*%
D10*
X021833Y005500D02*
X021833Y013374D01*
X029707Y013374D01*
X029707Y005500D01*
X021833Y005500D01*
X027952Y006700D02*
X027954Y006749D01*
X027960Y006797D01*
X027970Y006845D01*
X027984Y006892D01*
X028001Y006938D01*
X028022Y006982D01*
X028047Y007024D01*
X028075Y007064D01*
X028107Y007102D01*
X028141Y007137D01*
X028178Y007169D01*
X028217Y007198D01*
X028259Y007224D01*
X028303Y007246D01*
X028348Y007264D01*
X028395Y007279D01*
X028442Y007290D01*
X028491Y007297D01*
X028540Y007300D01*
X028589Y007299D01*
X028637Y007294D01*
X028686Y007285D01*
X028733Y007272D01*
X028779Y007255D01*
X028823Y007235D01*
X028866Y007211D01*
X028907Y007184D01*
X028945Y007153D01*
X028981Y007120D01*
X029013Y007084D01*
X029043Y007045D01*
X029070Y007004D01*
X029093Y006960D01*
X029112Y006915D01*
X029128Y006869D01*
X029140Y006822D01*
X029148Y006773D01*
X029152Y006724D01*
X029152Y006676D01*
X029148Y006627D01*
X029140Y006578D01*
X029128Y006531D01*
X029112Y006485D01*
X029093Y006440D01*
X029070Y006396D01*
X029043Y006355D01*
X029013Y006316D01*
X028981Y006280D01*
X028945Y006247D01*
X028907Y006216D01*
X028866Y006189D01*
X028823Y006165D01*
X028779Y006145D01*
X028733Y006128D01*
X028686Y006115D01*
X028637Y006106D01*
X028589Y006101D01*
X028540Y006100D01*
X028491Y006103D01*
X028442Y006110D01*
X028395Y006121D01*
X028348Y006136D01*
X028303Y006154D01*
X028259Y006176D01*
X028217Y006202D01*
X028178Y006231D01*
X028141Y006263D01*
X028107Y006298D01*
X028075Y006336D01*
X028047Y006376D01*
X028022Y006418D01*
X028001Y006462D01*
X027984Y006508D01*
X027970Y006555D01*
X027960Y006603D01*
X027954Y006651D01*
X027952Y006700D01*
X027952Y012219D02*
X027954Y012268D01*
X027960Y012316D01*
X027970Y012364D01*
X027984Y012411D01*
X028001Y012457D01*
X028022Y012501D01*
X028047Y012543D01*
X028075Y012583D01*
X028107Y012621D01*
X028141Y012656D01*
X028178Y012688D01*
X028217Y012717D01*
X028259Y012743D01*
X028303Y012765D01*
X028348Y012783D01*
X028395Y012798D01*
X028442Y012809D01*
X028491Y012816D01*
X028540Y012819D01*
X028589Y012818D01*
X028637Y012813D01*
X028686Y012804D01*
X028733Y012791D01*
X028779Y012774D01*
X028823Y012754D01*
X028866Y012730D01*
X028907Y012703D01*
X028945Y012672D01*
X028981Y012639D01*
X029013Y012603D01*
X029043Y012564D01*
X029070Y012523D01*
X029093Y012479D01*
X029112Y012434D01*
X029128Y012388D01*
X029140Y012341D01*
X029148Y012292D01*
X029152Y012243D01*
X029152Y012195D01*
X029148Y012146D01*
X029140Y012097D01*
X029128Y012050D01*
X029112Y012004D01*
X029093Y011959D01*
X029070Y011915D01*
X029043Y011874D01*
X029013Y011835D01*
X028981Y011799D01*
X028945Y011766D01*
X028907Y011735D01*
X028866Y011708D01*
X028823Y011684D01*
X028779Y011664D01*
X028733Y011647D01*
X028686Y011634D01*
X028637Y011625D01*
X028589Y011620D01*
X028540Y011619D01*
X028491Y011622D01*
X028442Y011629D01*
X028395Y011640D01*
X028348Y011655D01*
X028303Y011673D01*
X028259Y011695D01*
X028217Y011721D01*
X028178Y011750D01*
X028141Y011782D01*
X028107Y011817D01*
X028075Y011855D01*
X028047Y011895D01*
X028022Y011937D01*
X028001Y011981D01*
X027984Y012027D01*
X027970Y012074D01*
X027960Y012122D01*
X027954Y012170D01*
X027952Y012219D01*
D11*
X025346Y010847D03*
X024546Y010847D03*
X024546Y010178D03*
X025346Y010178D03*
X026946Y007147D03*
X026946Y006478D03*
D12*
X026981Y009113D03*
X026311Y009113D03*
X025681Y009113D03*
X025011Y009113D03*
D13*
X022533Y008900D03*
X022533Y007900D03*
X022533Y006900D03*
X022533Y009900D03*
X022533Y010900D03*
X022533Y011900D03*
D14*
X025244Y007709D03*
X025244Y007513D03*
X025244Y007316D03*
X026248Y007316D03*
X026248Y007513D03*
X026248Y007709D03*
D15*
X026140Y008015D03*
X025943Y008015D03*
X025746Y008015D03*
X025549Y008015D03*
X025352Y008015D03*
X025352Y007011D03*
X025549Y007011D03*
X025746Y007011D03*
X025943Y007011D03*
X026140Y007011D03*
D16*
X026359Y007085D02*
X026589Y007085D01*
X026589Y007106D02*
X026589Y006864D01*
X026627Y006827D01*
X026605Y006805D01*
X026581Y006764D01*
X026569Y006718D01*
X026569Y006496D01*
X026927Y006496D01*
X026927Y006460D01*
X026569Y006460D01*
X026569Y006238D01*
X026581Y006192D01*
X026605Y006151D01*
X026639Y006117D01*
X026680Y006094D01*
X026725Y006081D01*
X026928Y006081D01*
X026928Y006460D01*
X026964Y006460D01*
X026964Y006496D01*
X027323Y006496D01*
X027323Y006718D01*
X027311Y006764D01*
X027287Y006805D01*
X027265Y006827D01*
X027303Y006864D01*
X027303Y007430D01*
X027209Y007524D01*
X027156Y007524D01*
X027156Y007612D01*
X027192Y007648D01*
X027236Y007755D01*
X027236Y007870D01*
X027192Y007977D01*
X027110Y008058D01*
X027004Y008103D01*
X026953Y008103D01*
X026831Y008225D01*
X026359Y008225D01*
X026359Y008238D01*
X026350Y008247D01*
X026350Y008756D01*
X026594Y008756D01*
X026632Y008793D01*
X026654Y008772D01*
X026695Y008748D01*
X026740Y008736D01*
X026962Y008736D01*
X026962Y009094D01*
X026999Y009094D01*
X026999Y008736D01*
X027221Y008736D01*
X027267Y008748D01*
X027308Y008772D01*
X027341Y008805D01*
X027365Y008846D01*
X027377Y008892D01*
X027377Y009094D01*
X026999Y009094D01*
X026999Y009131D01*
X027377Y009131D01*
X027377Y009333D01*
X027365Y009379D01*
X027341Y009420D01*
X027308Y009453D01*
X027267Y009477D01*
X027221Y009489D01*
X026999Y009489D01*
X026999Y009131D01*
X026962Y009131D01*
X026962Y009489D01*
X026740Y009489D01*
X026695Y009477D01*
X026654Y009453D01*
X026632Y009432D01*
X026594Y009469D01*
X026456Y009469D01*
X026456Y010212D01*
X026492Y010248D01*
X026536Y010355D01*
X026536Y010470D01*
X026492Y010577D01*
X026410Y010658D01*
X026304Y010703D01*
X026253Y010703D01*
X026021Y010934D01*
X025898Y011057D01*
X025703Y011057D01*
X025703Y011130D01*
X025609Y011224D01*
X025083Y011224D01*
X024989Y011130D01*
X024989Y011057D01*
X024903Y011057D01*
X024903Y011130D01*
X024809Y011224D01*
X024283Y011224D01*
X024189Y011130D01*
X024189Y010723D01*
X023034Y010723D01*
X023063Y010795D01*
X023063Y011005D01*
X022983Y011200D01*
X022834Y011349D01*
X022711Y011400D01*
X022834Y011451D01*
X022983Y011600D01*
X023063Y011795D01*
X023063Y012005D01*
X022983Y012200D01*
X022834Y012349D01*
X022639Y012430D01*
X022428Y012430D01*
X022233Y012349D01*
X022084Y012200D01*
X022013Y012030D01*
X022013Y013194D01*
X029527Y013194D01*
X029527Y005680D01*
X022013Y005680D01*
X022013Y006721D01*
X022024Y006689D01*
X022063Y006612D01*
X022114Y006542D01*
X022175Y006480D01*
X022245Y006430D01*
X022322Y006390D01*
X022405Y006364D01*
X022490Y006350D01*
X022513Y006350D01*
X022513Y006880D01*
X022553Y006880D01*
X022553Y006350D01*
X022577Y006350D01*
X022662Y006364D01*
X022744Y006390D01*
X022822Y006430D01*
X022892Y006480D01*
X022953Y006542D01*
X023004Y006612D01*
X023043Y006689D01*
X023070Y006771D01*
X023083Y006857D01*
X023083Y006880D01*
X022553Y006880D01*
X022553Y006920D01*
X023083Y006920D01*
X023083Y006943D01*
X023070Y007029D01*
X023043Y007111D01*
X023004Y007188D01*
X022953Y007258D01*
X022892Y007320D01*
X022822Y007370D01*
X022744Y007410D01*
X022739Y007411D01*
X022834Y007451D01*
X022983Y007600D01*
X023023Y007697D01*
X023360Y007701D01*
X023536Y007526D01*
X023536Y006626D01*
X023659Y006503D01*
X024059Y006103D01*
X024733Y006103D01*
X024856Y006226D01*
X024944Y006314D01*
X024951Y006314D01*
X025005Y006375D01*
X025062Y006432D01*
X025062Y006439D01*
X025067Y006444D01*
X025062Y006525D01*
X025062Y006606D01*
X025057Y006611D01*
X025056Y006631D01*
X025056Y006726D01*
X025131Y006801D01*
X025133Y006801D01*
X025133Y006787D01*
X025227Y006693D01*
X025407Y006693D01*
X025421Y006685D01*
X025466Y006673D01*
X025536Y006673D01*
X025536Y006513D01*
X025500Y006477D01*
X025456Y006370D01*
X025456Y006255D01*
X025500Y006148D01*
X025582Y006067D01*
X025688Y006023D01*
X025804Y006023D01*
X025910Y006067D01*
X025992Y006148D01*
X026036Y006255D01*
X026036Y006370D01*
X025992Y006477D01*
X025956Y006513D01*
X025956Y006673D01*
X026026Y006673D01*
X026071Y006685D01*
X026085Y006693D01*
X026265Y006693D01*
X026359Y006787D01*
X026359Y007097D01*
X026472Y007097D01*
X026481Y007106D01*
X026589Y007106D01*
X026589Y006927D02*
X026359Y006927D01*
X027303Y006927D02*
X027726Y006927D01*
X027702Y006869D02*
X027702Y006531D01*
X027832Y006219D01*
X027832Y006219D01*
X028071Y005979D01*
X028383Y005850D01*
X028602Y005850D01*
X028721Y005850D01*
X028721Y005850D01*
X029034Y005979D01*
X029273Y006219D01*
X029402Y006531D01*
X029402Y006869D01*
X029273Y007181D01*
X029273Y007181D01*
X029034Y007421D01*
X028721Y007550D01*
X028383Y007550D01*
X028071Y007421D01*
X027832Y007181D01*
X027702Y006869D01*
X027702Y006768D02*
X027308Y006768D01*
X027323Y006610D02*
X027702Y006610D01*
X027735Y006451D02*
X027323Y006451D01*
X027323Y006460D02*
X026964Y006460D01*
X026964Y006081D01*
X027166Y006081D01*
X027212Y006094D01*
X027253Y006117D01*
X027287Y006151D01*
X027311Y006192D01*
X027323Y006238D01*
X027323Y006460D01*
X027323Y006293D02*
X027801Y006293D01*
X027916Y006134D02*
X027270Y006134D01*
X026964Y006134D02*
X026928Y006134D01*
X026928Y006293D02*
X026964Y006293D01*
X026964Y006451D02*
X026928Y006451D01*
X026569Y006451D02*
X026002Y006451D01*
X026036Y006293D02*
X026569Y006293D01*
X026622Y006134D02*
X025977Y006134D01*
X025514Y006134D02*
X024764Y006134D01*
X024923Y006293D02*
X025456Y006293D01*
X025489Y006451D02*
X025067Y006451D01*
X025059Y006610D02*
X025536Y006610D01*
X025152Y006768D02*
X025098Y006768D01*
X024636Y006768D02*
X023988Y006768D01*
X023956Y006800D02*
X024233Y006523D01*
X024559Y006523D01*
X024636Y006600D01*
X024636Y006619D01*
X024631Y006700D01*
X024636Y006705D01*
X024636Y006892D01*
X024610Y006867D01*
X024504Y006823D01*
X024388Y006823D01*
X024282Y006867D01*
X024200Y006948D01*
X024156Y007055D01*
X024156Y007170D01*
X024200Y007277D01*
X024282Y007358D01*
X024304Y007368D01*
X024359Y007423D01*
X024499Y007563D01*
X024259Y007803D01*
X024136Y007926D01*
X024136Y009192D01*
X024110Y009167D01*
X024004Y009123D01*
X023888Y009123D01*
X023782Y009167D01*
X023700Y009248D01*
X023656Y009355D01*
X023656Y009470D01*
X023700Y009577D01*
X023723Y009600D01*
X023723Y009987D01*
X023846Y010110D01*
X024039Y010303D01*
X022935Y010303D01*
X022881Y010302D01*
X022983Y010200D01*
X023063Y010005D01*
X023063Y009795D01*
X022983Y009600D01*
X022834Y009451D01*
X022711Y009400D01*
X022834Y009349D01*
X022983Y009200D01*
X023063Y009005D01*
X023063Y008795D01*
X022983Y008600D01*
X022834Y008451D01*
X022711Y008400D01*
X022834Y008349D01*
X022983Y008200D01*
X023017Y008117D01*
X023358Y008121D01*
X023359Y008123D01*
X023444Y008123D01*
X023530Y008124D01*
X023531Y008123D01*
X023533Y008123D01*
X023593Y008062D01*
X023655Y008002D01*
X023655Y008001D01*
X023956Y007700D01*
X023956Y006800D01*
X023956Y006927D02*
X024222Y006927D01*
X024156Y007085D02*
X023956Y007085D01*
X023956Y007244D02*
X024186Y007244D01*
X024338Y007402D02*
X023956Y007402D01*
X023956Y007561D02*
X024497Y007561D01*
X024343Y007719D02*
X023937Y007719D01*
X023501Y007561D02*
X022943Y007561D01*
X022760Y007402D02*
X023536Y007402D01*
X023536Y007244D02*
X022964Y007244D01*
X023052Y007085D02*
X023536Y007085D01*
X023536Y006927D02*
X023083Y006927D01*
X023069Y006768D02*
X023536Y006768D01*
X023552Y006610D02*
X023002Y006610D01*
X022851Y006451D02*
X023711Y006451D01*
X023869Y006293D02*
X022013Y006293D01*
X022013Y006451D02*
X022216Y006451D01*
X022065Y006610D02*
X022013Y006610D01*
X022513Y006610D02*
X022553Y006610D01*
X022553Y006768D02*
X022513Y006768D01*
X022513Y006451D02*
X022553Y006451D01*
X022013Y006134D02*
X024028Y006134D01*
X024146Y006610D02*
X024636Y006610D01*
X025956Y006610D02*
X026569Y006610D01*
X026584Y006768D02*
X026340Y006768D01*
X027303Y007085D02*
X027792Y007085D01*
X027832Y007181D02*
X027832Y007181D01*
X027894Y007244D02*
X027303Y007244D01*
X027303Y007402D02*
X028052Y007402D01*
X028071Y007421D02*
X028071Y007421D01*
X029034Y007421D02*
X029034Y007421D01*
X029052Y007402D02*
X029527Y007402D01*
X029527Y007244D02*
X029211Y007244D01*
X029313Y007085D02*
X029527Y007085D01*
X029527Y006927D02*
X029378Y006927D01*
X029402Y006768D02*
X029527Y006768D01*
X029527Y006610D02*
X029402Y006610D01*
X029369Y006451D02*
X029527Y006451D01*
X029527Y006293D02*
X029303Y006293D01*
X029273Y006219D02*
X029273Y006219D01*
X029188Y006134D02*
X029527Y006134D01*
X029527Y005976D02*
X029024Y005976D01*
X029034Y005979D02*
X029034Y005979D01*
X028080Y005976D02*
X022013Y005976D01*
X022013Y005817D02*
X029527Y005817D01*
X028071Y005979D02*
X028071Y005979D01*
X027156Y007561D02*
X029527Y007561D01*
X029527Y007719D02*
X027221Y007719D01*
X027233Y007878D02*
X029527Y007878D01*
X029527Y008036D02*
X027133Y008036D01*
X026861Y008195D02*
X029527Y008195D01*
X029527Y008353D02*
X026350Y008353D01*
X026350Y008512D02*
X029527Y008512D01*
X029527Y008670D02*
X026350Y008670D01*
X026962Y008829D02*
X026999Y008829D01*
X026999Y008987D02*
X026962Y008987D01*
X026962Y009146D02*
X026999Y009146D01*
X026999Y009304D02*
X026962Y009304D01*
X026962Y009463D02*
X026999Y009463D01*
X027292Y009463D02*
X029527Y009463D01*
X029527Y009621D02*
X026456Y009621D01*
X026601Y009463D02*
X026669Y009463D01*
X026036Y009469D02*
X026028Y009469D01*
X025996Y009437D01*
X025963Y009469D01*
X025398Y009469D01*
X025360Y009432D01*
X025338Y009453D01*
X025297Y009477D01*
X025252Y009489D01*
X025030Y009489D01*
X025030Y009131D01*
X024993Y009131D01*
X024993Y009489D01*
X024771Y009489D01*
X024725Y009477D01*
X024684Y009453D01*
X024651Y009420D01*
X024627Y009379D01*
X024615Y009333D01*
X024615Y009131D01*
X024993Y009131D01*
X024993Y009094D01*
X025030Y009094D01*
X025030Y008736D01*
X025252Y008736D01*
X025297Y008748D01*
X025338Y008772D01*
X025360Y008793D01*
X025391Y008762D01*
X025382Y008758D01*
X025300Y008677D01*
X025256Y008570D01*
X025256Y008455D01*
X025299Y008352D01*
X025269Y008352D01*
X025224Y008340D01*
X025183Y008316D01*
X025149Y008283D01*
X025125Y008242D01*
X025113Y008196D01*
X025113Y008015D01*
X025330Y008015D01*
X025330Y008015D01*
X025113Y008015D01*
X025113Y007929D01*
X025020Y007929D01*
X025011Y007919D01*
X024736Y007919D01*
X024556Y008100D01*
X024556Y009326D01*
X024720Y009490D01*
X025220Y009490D01*
X025433Y009703D01*
X025532Y009801D01*
X025609Y009801D01*
X025703Y009895D01*
X025703Y010461D01*
X025651Y010513D01*
X025703Y010564D01*
X025703Y010637D01*
X025724Y010637D01*
X025956Y010406D01*
X025956Y010355D01*
X026000Y010248D01*
X026036Y010212D01*
X026036Y009469D01*
X026022Y009463D02*
X025970Y009463D01*
X026036Y009621D02*
X025351Y009621D01*
X025323Y009463D02*
X025391Y009463D01*
X025030Y009463D02*
X024993Y009463D01*
X024993Y009304D02*
X025030Y009304D01*
X025030Y009146D02*
X024993Y009146D01*
X024993Y009094D02*
X024615Y009094D01*
X024615Y008892D01*
X024627Y008846D01*
X024651Y008805D01*
X024684Y008772D01*
X024725Y008748D01*
X024771Y008736D01*
X024993Y008736D01*
X024993Y009094D01*
X024993Y008987D02*
X025030Y008987D01*
X025030Y008829D02*
X024993Y008829D01*
X024637Y008829D02*
X024556Y008829D01*
X024556Y008987D02*
X024615Y008987D01*
X024615Y009146D02*
X024556Y009146D01*
X024556Y009304D02*
X024615Y009304D01*
X024693Y009463D02*
X024700Y009463D01*
X024136Y009146D02*
X024059Y009146D01*
X024136Y008987D02*
X023063Y008987D01*
X023063Y008829D02*
X024136Y008829D01*
X024136Y008670D02*
X023012Y008670D01*
X022894Y008512D02*
X024136Y008512D01*
X024136Y008353D02*
X022825Y008353D01*
X022985Y008195D02*
X024136Y008195D01*
X024136Y008036D02*
X023620Y008036D01*
X023778Y007878D02*
X024184Y007878D01*
X024620Y008036D02*
X025113Y008036D01*
X025113Y008195D02*
X024556Y008195D01*
X024556Y008353D02*
X025298Y008353D01*
X025256Y008512D02*
X024556Y008512D01*
X024556Y008670D02*
X025297Y008670D01*
X023833Y009146D02*
X023005Y009146D01*
X022879Y009304D02*
X023677Y009304D01*
X023656Y009463D02*
X022845Y009463D01*
X022991Y009621D02*
X023723Y009621D01*
X023723Y009780D02*
X023057Y009780D01*
X023063Y009938D02*
X023723Y009938D01*
X023833Y010097D02*
X023026Y010097D01*
X022928Y010255D02*
X023991Y010255D01*
X025510Y009780D02*
X026036Y009780D01*
X026036Y009938D02*
X025703Y009938D01*
X025703Y010097D02*
X026036Y010097D01*
X025997Y010255D02*
X025703Y010255D01*
X025703Y010414D02*
X025948Y010414D01*
X025790Y010572D02*
X025703Y010572D01*
X026494Y010572D02*
X029527Y010572D01*
X029527Y010414D02*
X026536Y010414D01*
X026495Y010255D02*
X029527Y010255D01*
X029527Y010097D02*
X026456Y010097D01*
X026456Y009938D02*
X029527Y009938D01*
X029527Y009780D02*
X026456Y009780D01*
X027377Y009304D02*
X029527Y009304D01*
X029527Y009146D02*
X027377Y009146D01*
X027377Y008987D02*
X029527Y008987D01*
X029527Y008829D02*
X027355Y008829D01*
X026225Y010731D02*
X029527Y010731D01*
X029527Y010889D02*
X026067Y010889D01*
X025908Y011048D02*
X029527Y011048D01*
X029527Y011206D02*
X025627Y011206D01*
X025065Y011206D02*
X024827Y011206D01*
X024265Y011206D02*
X022977Y011206D01*
X023046Y011048D02*
X024189Y011048D01*
X024189Y010889D02*
X023063Y010889D01*
X023037Y010731D02*
X024189Y010731D01*
X022797Y011365D02*
X029527Y011365D01*
X029273Y011737D02*
X029034Y011498D01*
X029034Y011498D01*
X028721Y011369D01*
X028503Y011369D01*
X028383Y011369D01*
X028071Y011498D01*
X028071Y011498D01*
X027832Y011737D01*
X027832Y011737D01*
X027702Y012050D01*
X027702Y012388D01*
X027832Y012700D01*
X027832Y012700D01*
X028071Y012939D01*
X028071Y012939D01*
X028383Y013069D01*
X028721Y013069D01*
X029034Y012939D01*
X029034Y012939D01*
X029273Y012700D01*
X029273Y012700D01*
X029402Y012388D01*
X029402Y012050D01*
X029273Y011737D01*
X029273Y011737D01*
X029217Y011682D02*
X029527Y011682D01*
X029527Y011840D02*
X029315Y011840D01*
X029381Y011999D02*
X029527Y011999D01*
X029527Y012157D02*
X029402Y012157D01*
X029402Y012316D02*
X029527Y012316D01*
X029527Y012474D02*
X029367Y012474D01*
X029301Y012633D02*
X029527Y012633D01*
X029527Y012791D02*
X029182Y012791D01*
X029010Y012950D02*
X029527Y012950D01*
X029527Y013108D02*
X022013Y013108D01*
X022013Y012950D02*
X028095Y012950D01*
X027922Y012791D02*
X022013Y012791D01*
X022013Y012633D02*
X027804Y012633D01*
X027738Y012474D02*
X022013Y012474D01*
X022013Y012316D02*
X022199Y012316D01*
X022066Y012157D02*
X022013Y012157D01*
X022867Y012316D02*
X027702Y012316D01*
X027702Y012157D02*
X023001Y012157D01*
X023063Y011999D02*
X027723Y011999D01*
X027789Y011840D02*
X023063Y011840D01*
X023016Y011682D02*
X027888Y011682D01*
X028046Y011523D02*
X022906Y011523D01*
X029058Y011523D02*
X029527Y011523D01*
D17*
X026246Y010413D03*
X025746Y009713D03*
X023946Y009413D03*
X025546Y008513D03*
X026646Y008513D03*
X024846Y008113D03*
X026946Y007813D03*
X024446Y007113D03*
X024446Y006713D03*
X025746Y006313D03*
X026346Y006213D03*
D18*
X025943Y006616D01*
X025943Y007011D01*
X025746Y007011D02*
X025746Y006313D01*
X025549Y006616D02*
X025333Y006400D01*
X025333Y005900D01*
X024852Y006519D02*
X024646Y006313D01*
X024146Y006313D01*
X023746Y006713D01*
X023746Y007613D01*
X023446Y007913D01*
X022533Y007900D01*
X024346Y008013D02*
X024346Y009413D01*
X024633Y009700D01*
X025133Y009700D01*
X025346Y009913D01*
X025346Y010178D01*
X025246Y010178D01*
X025346Y010178D02*
X025011Y010513D01*
X022933Y010513D01*
X022533Y010900D01*
X024546Y010847D02*
X025346Y010847D01*
X025811Y010847D01*
X026246Y010413D01*
X026246Y009178D01*
X026311Y009113D01*
X026140Y008941D01*
X026140Y008015D01*
X026744Y008015D01*
X026946Y007813D01*
X026946Y007147D01*
X026777Y007316D01*
X026248Y007316D01*
X025549Y007011D02*
X025549Y006616D01*
X024846Y006625D02*
X024852Y006519D01*
X024846Y006625D02*
X024846Y006813D01*
X025044Y007011D01*
X025352Y007011D01*
X025546Y007007D02*
X025549Y007011D01*
X024746Y007513D02*
X024446Y007213D01*
X024446Y007113D01*
X024746Y007513D02*
X025244Y007513D01*
X025244Y007709D02*
X024649Y007709D01*
X024346Y008013D01*
X025549Y008015D02*
X025549Y008509D01*
X025546Y008513D01*
X025943Y008850D02*
X025943Y008015D01*
X025943Y008850D02*
X025681Y009113D01*
X023946Y009413D02*
X023933Y009425D01*
X023933Y009900D01*
X024211Y010178D01*
X024546Y010178D01*
M02*
