G75*
%MOIN*%
%OFA0B0*%
%FSLAX24Y24*%
%IPPOS*%
%LPD*%
%AMOC8*
5,1,8,0,0,1.08239X$1,22.5*
%
%ADD10C,0.0000*%
%ADD11C,0.0740*%
%ADD12C,0.0160*%
%ADD13C,0.0260*%
%ADD14C,0.0100*%
D10*
X021833Y005500D02*
X021833Y013374D01*
X029707Y013374D01*
X029707Y005500D01*
X021833Y005500D01*
X027952Y006700D02*
X027954Y006749D01*
X027960Y006797D01*
X027970Y006845D01*
X027984Y006892D01*
X028001Y006938D01*
X028022Y006982D01*
X028047Y007024D01*
X028075Y007064D01*
X028107Y007102D01*
X028141Y007137D01*
X028178Y007169D01*
X028217Y007198D01*
X028259Y007224D01*
X028303Y007246D01*
X028348Y007264D01*
X028395Y007279D01*
X028442Y007290D01*
X028491Y007297D01*
X028540Y007300D01*
X028589Y007299D01*
X028637Y007294D01*
X028686Y007285D01*
X028733Y007272D01*
X028779Y007255D01*
X028823Y007235D01*
X028866Y007211D01*
X028907Y007184D01*
X028945Y007153D01*
X028981Y007120D01*
X029013Y007084D01*
X029043Y007045D01*
X029070Y007004D01*
X029093Y006960D01*
X029112Y006915D01*
X029128Y006869D01*
X029140Y006822D01*
X029148Y006773D01*
X029152Y006724D01*
X029152Y006676D01*
X029148Y006627D01*
X029140Y006578D01*
X029128Y006531D01*
X029112Y006485D01*
X029093Y006440D01*
X029070Y006396D01*
X029043Y006355D01*
X029013Y006316D01*
X028981Y006280D01*
X028945Y006247D01*
X028907Y006216D01*
X028866Y006189D01*
X028823Y006165D01*
X028779Y006145D01*
X028733Y006128D01*
X028686Y006115D01*
X028637Y006106D01*
X028589Y006101D01*
X028540Y006100D01*
X028491Y006103D01*
X028442Y006110D01*
X028395Y006121D01*
X028348Y006136D01*
X028303Y006154D01*
X028259Y006176D01*
X028217Y006202D01*
X028178Y006231D01*
X028141Y006263D01*
X028107Y006298D01*
X028075Y006336D01*
X028047Y006376D01*
X028022Y006418D01*
X028001Y006462D01*
X027984Y006508D01*
X027970Y006555D01*
X027960Y006603D01*
X027954Y006651D01*
X027952Y006700D01*
X027952Y012219D02*
X027954Y012268D01*
X027960Y012316D01*
X027970Y012364D01*
X027984Y012411D01*
X028001Y012457D01*
X028022Y012501D01*
X028047Y012543D01*
X028075Y012583D01*
X028107Y012621D01*
X028141Y012656D01*
X028178Y012688D01*
X028217Y012717D01*
X028259Y012743D01*
X028303Y012765D01*
X028348Y012783D01*
X028395Y012798D01*
X028442Y012809D01*
X028491Y012816D01*
X028540Y012819D01*
X028589Y012818D01*
X028637Y012813D01*
X028686Y012804D01*
X028733Y012791D01*
X028779Y012774D01*
X028823Y012754D01*
X028866Y012730D01*
X028907Y012703D01*
X028945Y012672D01*
X028981Y012639D01*
X029013Y012603D01*
X029043Y012564D01*
X029070Y012523D01*
X029093Y012479D01*
X029112Y012434D01*
X029128Y012388D01*
X029140Y012341D01*
X029148Y012292D01*
X029152Y012243D01*
X029152Y012195D01*
X029148Y012146D01*
X029140Y012097D01*
X029128Y012050D01*
X029112Y012004D01*
X029093Y011959D01*
X029070Y011915D01*
X029043Y011874D01*
X029013Y011835D01*
X028981Y011799D01*
X028945Y011766D01*
X028907Y011735D01*
X028866Y011708D01*
X028823Y011684D01*
X028779Y011664D01*
X028733Y011647D01*
X028686Y011634D01*
X028637Y011625D01*
X028589Y011620D01*
X028540Y011619D01*
X028491Y011622D01*
X028442Y011629D01*
X028395Y011640D01*
X028348Y011655D01*
X028303Y011673D01*
X028259Y011695D01*
X028217Y011721D01*
X028178Y011750D01*
X028141Y011782D01*
X028107Y011817D01*
X028075Y011855D01*
X028047Y011895D01*
X028022Y011937D01*
X028001Y011981D01*
X027984Y012027D01*
X027970Y012074D01*
X027960Y012122D01*
X027954Y012170D01*
X027952Y012219D01*
D11*
X022533Y011900D03*
X022533Y010900D03*
X022533Y009900D03*
X022533Y008900D03*
X022533Y007900D03*
X022533Y006900D03*
D12*
X022513Y006880D02*
X022553Y006880D01*
X022553Y006350D01*
X022577Y006350D01*
X022662Y006364D01*
X022744Y006390D01*
X022822Y006430D01*
X022892Y006480D01*
X022953Y006542D01*
X023004Y006612D01*
X023043Y006689D01*
X023070Y006771D01*
X023083Y006857D01*
X023083Y006880D01*
X022553Y006880D01*
X022553Y006920D01*
X023083Y006920D01*
X023083Y006943D01*
X023070Y007029D01*
X023043Y007111D01*
X023004Y007188D01*
X022953Y007258D01*
X022892Y007320D01*
X022822Y007370D01*
X022744Y007410D01*
X022739Y007411D01*
X022834Y007451D01*
X022983Y007600D01*
X023063Y007795D01*
X023063Y008005D01*
X022983Y008200D01*
X022834Y008349D01*
X022711Y008400D01*
X022834Y008451D01*
X022983Y008600D01*
X023006Y008656D01*
X023536Y008126D01*
X023536Y006626D01*
X023659Y006503D01*
X024059Y006103D01*
X025546Y006103D01*
X025582Y006067D01*
X025688Y006023D01*
X025804Y006023D01*
X025910Y006067D01*
X025992Y006148D01*
X026036Y006255D01*
X026036Y006370D01*
X025992Y006477D01*
X025910Y006558D01*
X025804Y006603D01*
X025688Y006603D01*
X025582Y006558D01*
X025546Y006523D01*
X024233Y006523D01*
X023956Y006800D01*
X023956Y008300D01*
X023254Y009002D01*
X023254Y009005D01*
X023193Y009063D01*
X023133Y009123D01*
X023130Y009123D01*
X023128Y009125D01*
X023043Y009123D01*
X023015Y009123D01*
X022983Y009200D01*
X022981Y009202D01*
X023035Y009203D01*
X023736Y009203D01*
X023736Y008726D01*
X023859Y008603D01*
X024159Y008303D01*
X025346Y008303D01*
X025382Y008267D01*
X025488Y008223D01*
X025604Y008223D01*
X025710Y008267D01*
X025792Y008348D01*
X025836Y008455D01*
X025836Y008570D01*
X025792Y008677D01*
X025710Y008758D01*
X025604Y008803D01*
X025488Y008803D01*
X025382Y008758D01*
X025346Y008723D01*
X024333Y008723D01*
X024156Y008900D01*
X024156Y009212D01*
X024192Y009248D01*
X024236Y009355D01*
X024236Y009470D01*
X024192Y009577D01*
X024110Y009658D01*
X024004Y009703D01*
X023888Y009703D01*
X023782Y009658D01*
X023746Y009623D01*
X023119Y009623D01*
X023029Y009711D01*
X023063Y009795D01*
X023063Y010005D01*
X022983Y010200D01*
X022834Y010349D01*
X022711Y010400D01*
X022834Y010451D01*
X022983Y010600D01*
X023063Y010795D01*
X023063Y011005D01*
X022983Y011200D01*
X022834Y011349D01*
X022711Y011400D01*
X022834Y011451D01*
X022983Y011600D01*
X023021Y011692D01*
X025859Y011702D01*
X026036Y011526D01*
X026036Y010613D01*
X026000Y010577D01*
X025956Y010470D01*
X025956Y010355D01*
X026000Y010248D01*
X026082Y010167D01*
X026188Y010123D01*
X026304Y010123D01*
X026410Y010167D01*
X026492Y010248D01*
X026536Y010355D01*
X026536Y010470D01*
X026492Y010577D01*
X026456Y010613D01*
X026456Y011700D01*
X026333Y011823D01*
X026333Y011823D01*
X026156Y012000D01*
X026156Y012000D01*
X026094Y012061D01*
X026033Y012123D01*
X026032Y012123D01*
X025945Y012123D01*
X025859Y012123D01*
X025859Y012122D01*
X023019Y012112D01*
X022983Y012200D01*
X022834Y012349D01*
X022639Y012430D01*
X022428Y012430D01*
X022233Y012349D01*
X022084Y012200D01*
X022013Y012030D01*
X022013Y013194D01*
X029527Y013194D01*
X029527Y005680D01*
X022013Y005680D01*
X022013Y006721D01*
X022024Y006689D01*
X022063Y006612D01*
X022114Y006542D01*
X022175Y006480D01*
X022245Y006430D01*
X022322Y006390D01*
X022405Y006364D01*
X022490Y006350D01*
X022513Y006350D01*
X022513Y006880D01*
X022513Y006768D02*
X022553Y006768D01*
X022553Y006610D02*
X022513Y006610D01*
X022513Y006451D02*
X022553Y006451D01*
X022851Y006451D02*
X023711Y006451D01*
X023869Y006293D02*
X022013Y006293D01*
X022013Y006451D02*
X022216Y006451D01*
X022065Y006610D02*
X022013Y006610D01*
X023002Y006610D02*
X023552Y006610D01*
X023536Y006768D02*
X023069Y006768D01*
X023083Y006927D02*
X023536Y006927D01*
X023536Y007085D02*
X023052Y007085D01*
X022964Y007244D02*
X023536Y007244D01*
X023536Y007402D02*
X022760Y007402D01*
X022943Y007561D02*
X023536Y007561D01*
X023536Y007719D02*
X023032Y007719D01*
X023063Y007878D02*
X023536Y007878D01*
X023536Y008036D02*
X023051Y008036D01*
X022985Y008195D02*
X023467Y008195D01*
X023309Y008353D02*
X022825Y008353D01*
X022894Y008512D02*
X023150Y008512D01*
X023586Y008670D02*
X023792Y008670D01*
X023744Y008512D02*
X023950Y008512D01*
X023903Y008353D02*
X024109Y008353D01*
X023956Y008195D02*
X029527Y008195D01*
X029527Y008353D02*
X025794Y008353D01*
X025836Y008512D02*
X029527Y008512D01*
X029527Y008670D02*
X025795Y008670D01*
X024227Y008829D02*
X029527Y008829D01*
X029527Y008987D02*
X024156Y008987D01*
X024156Y009146D02*
X029527Y009146D01*
X029527Y009304D02*
X024215Y009304D01*
X024236Y009463D02*
X029527Y009463D01*
X029527Y009621D02*
X024148Y009621D01*
X023057Y009780D02*
X029527Y009780D01*
X029527Y009938D02*
X023063Y009938D01*
X023026Y010097D02*
X029527Y010097D01*
X029527Y010255D02*
X026495Y010255D01*
X026536Y010414D02*
X029527Y010414D01*
X029527Y010572D02*
X026494Y010572D01*
X025998Y010572D02*
X022955Y010572D01*
X022744Y010414D02*
X025956Y010414D01*
X025997Y010255D02*
X022928Y010255D01*
X023037Y010731D02*
X026036Y010731D01*
X026036Y010889D02*
X023063Y010889D01*
X023046Y011048D02*
X026036Y011048D01*
X026036Y011206D02*
X022977Y011206D01*
X022797Y011365D02*
X026036Y011365D01*
X026456Y011365D02*
X029527Y011365D01*
X029527Y011206D02*
X026456Y011206D01*
X026456Y011048D02*
X029527Y011048D01*
X029527Y010889D02*
X026456Y010889D01*
X026456Y010731D02*
X029527Y010731D01*
X029034Y011498D02*
X028721Y011369D01*
X028602Y011369D01*
X028383Y011369D01*
X028071Y011498D01*
X028071Y011498D01*
X027832Y011737D01*
X027832Y011737D01*
X027702Y012050D01*
X027702Y012388D01*
X027832Y012700D01*
X027832Y012700D01*
X028071Y012939D01*
X028071Y012939D01*
X028383Y013069D01*
X028721Y013069D01*
X029034Y012939D01*
X029034Y012939D01*
X029273Y012700D01*
X029273Y012700D01*
X029402Y012388D01*
X029402Y012050D01*
X029273Y011737D01*
X029273Y011737D01*
X029034Y011498D01*
X029034Y011498D01*
X029058Y011523D02*
X029527Y011523D01*
X029527Y011682D02*
X029217Y011682D01*
X029315Y011840D02*
X029527Y011840D01*
X029527Y011999D02*
X029381Y011999D01*
X029402Y012157D02*
X029527Y012157D01*
X029527Y012316D02*
X029402Y012316D01*
X029367Y012474D02*
X029527Y012474D01*
X029527Y012633D02*
X029301Y012633D01*
X029182Y012791D02*
X029527Y012791D01*
X029527Y012950D02*
X029010Y012950D01*
X029527Y013108D02*
X022013Y013108D01*
X022013Y012950D02*
X028095Y012950D01*
X027922Y012791D02*
X022013Y012791D01*
X022013Y012633D02*
X027804Y012633D01*
X027738Y012474D02*
X022013Y012474D01*
X022013Y012316D02*
X022199Y012316D01*
X022066Y012157D02*
X022013Y012157D01*
X022867Y012316D02*
X027702Y012316D01*
X027702Y012157D02*
X023001Y012157D01*
X023016Y011682D02*
X025880Y011682D01*
X026036Y011523D02*
X022906Y011523D01*
X026032Y012123D02*
X026032Y012123D01*
X026157Y011999D02*
X027723Y011999D01*
X027789Y011840D02*
X026316Y011840D01*
X026456Y011682D02*
X027888Y011682D01*
X028046Y011523D02*
X026456Y011523D01*
X028721Y011369D02*
X028721Y011369D01*
X023736Y009146D02*
X023005Y009146D01*
X023269Y008987D02*
X023736Y008987D01*
X023736Y008829D02*
X023427Y008829D01*
X023956Y008036D02*
X026759Y008036D01*
X026782Y008058D02*
X026700Y007977D01*
X026656Y007870D01*
X026656Y007755D01*
X026700Y007648D01*
X026736Y007612D01*
X026736Y007200D01*
X026559Y007023D01*
X025233Y007023D01*
X024933Y007323D01*
X024646Y007323D01*
X024610Y007358D01*
X024504Y007403D01*
X024388Y007403D01*
X024282Y007358D01*
X024200Y007277D01*
X024156Y007170D01*
X024156Y007055D01*
X024200Y006948D01*
X024282Y006867D01*
X024388Y006823D01*
X024504Y006823D01*
X024610Y006867D01*
X024646Y006903D01*
X024759Y006903D01*
X024936Y006726D01*
X025059Y006603D01*
X026733Y006603D01*
X027033Y006903D01*
X027156Y007026D01*
X027156Y007612D01*
X027192Y007648D01*
X027236Y007755D01*
X027236Y007870D01*
X027192Y007977D01*
X027110Y008058D01*
X027004Y008103D01*
X026888Y008103D01*
X026782Y008058D01*
X026659Y007878D02*
X023956Y007878D01*
X023956Y007719D02*
X026671Y007719D01*
X026736Y007561D02*
X023956Y007561D01*
X023956Y007402D02*
X024387Y007402D01*
X024505Y007402D02*
X026736Y007402D01*
X026736Y007244D02*
X025012Y007244D01*
X025171Y007085D02*
X026621Y007085D01*
X027057Y006927D02*
X027726Y006927D01*
X027702Y006869D02*
X027702Y006531D01*
X027832Y006219D01*
X027832Y006219D01*
X028071Y005979D01*
X028383Y005850D01*
X028602Y005850D01*
X028721Y005850D01*
X029034Y005979D01*
X029273Y006219D01*
X029402Y006531D01*
X029402Y006869D01*
X029273Y007181D01*
X029273Y007181D01*
X029034Y007421D01*
X028721Y007550D01*
X028383Y007550D01*
X028071Y007421D01*
X027832Y007181D01*
X027702Y006869D01*
X027702Y006768D02*
X026898Y006768D01*
X026740Y006610D02*
X027702Y006610D01*
X027735Y006451D02*
X026002Y006451D01*
X026036Y006293D02*
X027801Y006293D01*
X027916Y006134D02*
X025977Y006134D01*
X025052Y006610D02*
X024146Y006610D01*
X023988Y006768D02*
X024894Y006768D01*
X024222Y006927D02*
X023956Y006927D01*
X023956Y007085D02*
X024156Y007085D01*
X024186Y007244D02*
X023956Y007244D01*
X027156Y007244D02*
X027894Y007244D01*
X027832Y007181D02*
X027832Y007181D01*
X027792Y007085D02*
X027156Y007085D01*
X027156Y007402D02*
X028052Y007402D01*
X028071Y007421D02*
X028071Y007421D01*
X029034Y007421D02*
X029034Y007421D01*
X029052Y007402D02*
X029527Y007402D01*
X029527Y007244D02*
X029211Y007244D01*
X029313Y007085D02*
X029527Y007085D01*
X029527Y006927D02*
X029378Y006927D01*
X029402Y006768D02*
X029527Y006768D01*
X029527Y006610D02*
X029402Y006610D01*
X029369Y006451D02*
X029527Y006451D01*
X029527Y006293D02*
X029303Y006293D01*
X029273Y006219D02*
X029273Y006219D01*
X029273Y006219D01*
X029188Y006134D02*
X029527Y006134D01*
X029527Y005976D02*
X029024Y005976D01*
X029034Y005979D02*
X029034Y005979D01*
X028080Y005976D02*
X022013Y005976D01*
X022013Y006134D02*
X024028Y006134D01*
X022013Y005817D02*
X029527Y005817D01*
X028071Y005979D02*
X028071Y005979D01*
X027156Y007561D02*
X029527Y007561D01*
X029527Y007719D02*
X027221Y007719D01*
X027233Y007878D02*
X029527Y007878D01*
X029527Y008036D02*
X027133Y008036D01*
D13*
X026946Y007813D03*
X024846Y008113D03*
X025546Y008513D03*
X026646Y008513D03*
X023946Y009413D03*
X025746Y009713D03*
X026246Y010413D03*
X024446Y007113D03*
X024446Y006713D03*
X025746Y006313D03*
X026346Y006213D03*
D14*
X025746Y006313D02*
X024146Y006313D01*
X023746Y006713D01*
X023746Y008213D01*
X023046Y008913D01*
X022533Y008900D01*
X023946Y008813D02*
X024246Y008513D01*
X025546Y008513D01*
X023946Y008813D02*
X023946Y009413D01*
X023033Y009413D01*
X022533Y009900D01*
X026246Y010413D02*
X026246Y011613D01*
X025946Y011913D01*
X022533Y011900D01*
X026946Y007813D02*
X026946Y007113D01*
X026646Y006813D01*
X025146Y006813D01*
X024846Y007113D01*
X024446Y007113D01*
M02*
