G75*
%MOIN*%
%OFA0B0*%
%FSLAX24Y24*%
%IPPOS*%
%LPD*%
%AMOC8*
5,1,8,0,0,1.08239X$1,22.5*
%
%ADD10C,0.0000*%
%ADD11C,0.0060*%
%ADD12C,0.0080*%
%ADD13R,0.0300X0.0180*%
%ADD14C,0.0070*%
%ADD15C,0.0120*%
D10*
X021833Y005500D02*
X021833Y013374D01*
X029707Y013374D01*
X029707Y005500D01*
X021833Y005500D01*
X027952Y006700D02*
X027954Y006749D01*
X027960Y006797D01*
X027970Y006845D01*
X027984Y006892D01*
X028001Y006938D01*
X028022Y006982D01*
X028047Y007024D01*
X028075Y007064D01*
X028107Y007102D01*
X028141Y007137D01*
X028178Y007169D01*
X028217Y007198D01*
X028259Y007224D01*
X028303Y007246D01*
X028348Y007264D01*
X028395Y007279D01*
X028442Y007290D01*
X028491Y007297D01*
X028540Y007300D01*
X028589Y007299D01*
X028637Y007294D01*
X028686Y007285D01*
X028733Y007272D01*
X028779Y007255D01*
X028823Y007235D01*
X028866Y007211D01*
X028907Y007184D01*
X028945Y007153D01*
X028981Y007120D01*
X029013Y007084D01*
X029043Y007045D01*
X029070Y007004D01*
X029093Y006960D01*
X029112Y006915D01*
X029128Y006869D01*
X029140Y006822D01*
X029148Y006773D01*
X029152Y006724D01*
X029152Y006676D01*
X029148Y006627D01*
X029140Y006578D01*
X029128Y006531D01*
X029112Y006485D01*
X029093Y006440D01*
X029070Y006396D01*
X029043Y006355D01*
X029013Y006316D01*
X028981Y006280D01*
X028945Y006247D01*
X028907Y006216D01*
X028866Y006189D01*
X028823Y006165D01*
X028779Y006145D01*
X028733Y006128D01*
X028686Y006115D01*
X028637Y006106D01*
X028589Y006101D01*
X028540Y006100D01*
X028491Y006103D01*
X028442Y006110D01*
X028395Y006121D01*
X028348Y006136D01*
X028303Y006154D01*
X028259Y006176D01*
X028217Y006202D01*
X028178Y006231D01*
X028141Y006263D01*
X028107Y006298D01*
X028075Y006336D01*
X028047Y006376D01*
X028022Y006418D01*
X028001Y006462D01*
X027984Y006508D01*
X027970Y006555D01*
X027960Y006603D01*
X027954Y006651D01*
X027952Y006700D01*
X027952Y012219D02*
X027954Y012268D01*
X027960Y012316D01*
X027970Y012364D01*
X027984Y012411D01*
X028001Y012457D01*
X028022Y012501D01*
X028047Y012543D01*
X028075Y012583D01*
X028107Y012621D01*
X028141Y012656D01*
X028178Y012688D01*
X028217Y012717D01*
X028259Y012743D01*
X028303Y012765D01*
X028348Y012783D01*
X028395Y012798D01*
X028442Y012809D01*
X028491Y012816D01*
X028540Y012819D01*
X028589Y012818D01*
X028637Y012813D01*
X028686Y012804D01*
X028733Y012791D01*
X028779Y012774D01*
X028823Y012754D01*
X028866Y012730D01*
X028907Y012703D01*
X028945Y012672D01*
X028981Y012639D01*
X029013Y012603D01*
X029043Y012564D01*
X029070Y012523D01*
X029093Y012479D01*
X029112Y012434D01*
X029128Y012388D01*
X029140Y012341D01*
X029148Y012292D01*
X029152Y012243D01*
X029152Y012195D01*
X029148Y012146D01*
X029140Y012097D01*
X029128Y012050D01*
X029112Y012004D01*
X029093Y011959D01*
X029070Y011915D01*
X029043Y011874D01*
X029013Y011835D01*
X028981Y011799D01*
X028945Y011766D01*
X028907Y011735D01*
X028866Y011708D01*
X028823Y011684D01*
X028779Y011664D01*
X028733Y011647D01*
X028686Y011634D01*
X028637Y011625D01*
X028589Y011620D01*
X028540Y011619D01*
X028491Y011622D01*
X028442Y011629D01*
X028395Y011640D01*
X028348Y011655D01*
X028303Y011673D01*
X028259Y011695D01*
X028217Y011721D01*
X028178Y011750D01*
X028141Y011782D01*
X028107Y011817D01*
X028075Y011855D01*
X028047Y011895D01*
X028022Y011937D01*
X028001Y011981D01*
X027984Y012027D01*
X027970Y012074D01*
X027960Y012122D01*
X027954Y012170D01*
X027952Y012219D01*
D11*
X024192Y012030D02*
X024192Y011830D01*
X024092Y011730D01*
X023992Y011830D01*
X023992Y012030D01*
X023861Y011980D02*
X023861Y011930D01*
X023811Y011880D01*
X023861Y011830D01*
X023861Y011780D01*
X023811Y011730D01*
X023711Y011730D01*
X023661Y011780D01*
X023545Y011780D02*
X023545Y011730D01*
X023495Y011730D01*
X023495Y011780D01*
X023545Y011780D01*
X023364Y011780D02*
X023313Y011730D01*
X023213Y011730D01*
X023163Y011780D01*
X023263Y011880D02*
X023313Y011880D01*
X023364Y011830D01*
X023364Y011780D01*
X023313Y011880D02*
X023364Y011930D01*
X023364Y011980D01*
X023313Y012030D01*
X023213Y012030D01*
X023163Y011980D01*
X023661Y011980D02*
X023711Y012030D01*
X023811Y012030D01*
X023861Y011980D01*
X023811Y011880D02*
X023761Y011880D01*
X023645Y011030D02*
X023495Y011030D01*
X023495Y010730D01*
X023645Y010730D01*
X023695Y010780D01*
X023695Y010980D01*
X023645Y011030D01*
X023826Y010930D02*
X023926Y011030D01*
X024026Y010930D01*
X024026Y010730D01*
X024026Y010880D02*
X023826Y010880D01*
X023826Y010930D02*
X023826Y010730D01*
X023364Y010780D02*
X023313Y010730D01*
X023213Y010730D01*
X023163Y010780D01*
X023213Y010880D02*
X023313Y010880D01*
X023364Y010830D01*
X023364Y010780D01*
X023213Y010880D02*
X023163Y010930D01*
X023163Y010980D01*
X023213Y011030D01*
X023313Y011030D01*
X023364Y010980D01*
X023313Y010030D02*
X023213Y010030D01*
X023163Y009980D01*
X023163Y009930D01*
X023213Y009880D01*
X023313Y009880D01*
X023364Y009830D01*
X023364Y009780D01*
X023313Y009730D01*
X023213Y009730D01*
X023163Y009780D01*
X023364Y009980D02*
X023313Y010030D01*
X023495Y009980D02*
X023495Y009780D01*
X023545Y009730D01*
X023645Y009730D01*
X023695Y009780D01*
X023826Y009730D02*
X024026Y009730D01*
X023826Y009730D02*
X023826Y010030D01*
X023695Y009980D02*
X023645Y010030D01*
X023545Y010030D01*
X023495Y009980D01*
X023584Y009030D02*
X023584Y008730D01*
X023384Y009030D01*
X023384Y008730D01*
X023263Y008730D02*
X023163Y008730D01*
X023213Y008730D02*
X023213Y009030D01*
X023163Y009030D02*
X023263Y009030D01*
X023716Y009030D02*
X023916Y009030D01*
X023816Y009030D02*
X023816Y008730D01*
X024047Y008730D02*
X024247Y008730D01*
X024147Y008730D02*
X024147Y009030D01*
X024047Y008930D01*
X024097Y008130D02*
X024047Y008080D01*
X024097Y008130D02*
X024197Y008130D01*
X024247Y008080D01*
X024247Y008030D01*
X024047Y007830D01*
X024247Y007830D01*
X023816Y007830D02*
X023816Y008130D01*
X023716Y008130D02*
X023916Y008130D01*
X023584Y008130D02*
X023584Y007830D01*
X023384Y008130D01*
X023384Y007830D01*
X023263Y007830D02*
X023163Y007830D01*
X023213Y007830D02*
X023213Y008130D01*
X023163Y008130D02*
X023263Y008130D01*
X023213Y007030D02*
X023163Y006980D01*
X023163Y006780D01*
X023213Y006730D01*
X023313Y006730D01*
X023364Y006780D01*
X023364Y006880D01*
X023263Y006880D01*
X023364Y006980D02*
X023313Y007030D01*
X023213Y007030D01*
X023495Y007030D02*
X023695Y006730D01*
X023695Y007030D01*
X023826Y007030D02*
X023976Y007030D01*
X024026Y006980D01*
X024026Y006780D01*
X023976Y006730D01*
X023826Y006730D01*
X023826Y007030D01*
X023495Y007030D02*
X023495Y006730D01*
X023439Y006080D02*
X023439Y006030D01*
X023439Y005930D02*
X023439Y005730D01*
X023389Y005730D02*
X023489Y005730D01*
X023610Y005730D02*
X023760Y005730D01*
X023810Y005780D01*
X023760Y005830D01*
X023660Y005830D01*
X023610Y005880D01*
X023660Y005930D01*
X023810Y005930D01*
X023439Y005930D02*
X023389Y005930D01*
X023258Y005930D02*
X023058Y005730D01*
X022926Y005730D02*
X022926Y005930D01*
X022826Y006030D01*
X022726Y005930D01*
X022726Y005730D01*
X022726Y005880D02*
X022926Y005880D01*
X023058Y005930D02*
X023258Y005730D01*
X022595Y005880D02*
X022395Y005880D01*
X022264Y005830D02*
X022264Y005780D01*
X022213Y005730D01*
X022113Y005730D01*
X022063Y005780D01*
X022163Y005880D02*
X022213Y005880D01*
X022264Y005830D01*
X022213Y005880D02*
X022264Y005930D01*
X022264Y005980D01*
X022213Y006030D01*
X022113Y006030D01*
X022063Y005980D01*
X024273Y005930D02*
X024273Y005730D01*
X024273Y005880D02*
X024473Y005880D01*
X024473Y005930D02*
X024473Y005730D01*
X024605Y005780D02*
X024605Y005880D01*
X024655Y005930D01*
X024805Y005930D01*
X024936Y005880D02*
X024936Y005780D01*
X024986Y005730D01*
X025136Y005730D01*
X025268Y005780D02*
X025268Y005880D01*
X025318Y005930D01*
X025418Y005930D01*
X025468Y005880D01*
X025468Y005830D01*
X025268Y005830D01*
X025268Y005780D02*
X025318Y005730D01*
X025418Y005730D01*
X025599Y005730D02*
X025699Y005730D01*
X025649Y005730D02*
X025649Y006030D01*
X025599Y006030D01*
X025820Y005880D02*
X025870Y005930D01*
X025970Y005930D01*
X026020Y005880D01*
X026020Y005830D01*
X025820Y005830D01*
X025820Y005780D02*
X025820Y005880D01*
X025820Y005780D02*
X025870Y005730D01*
X025970Y005730D01*
X026152Y005730D02*
X026152Y005930D01*
X026152Y005830D02*
X026252Y005930D01*
X026302Y005930D01*
X026428Y005880D02*
X026428Y005780D01*
X026478Y005730D01*
X026578Y005730D01*
X026628Y005780D01*
X026628Y005880D01*
X026578Y005930D01*
X026478Y005930D01*
X026428Y005880D01*
X026759Y005930D02*
X026809Y005930D01*
X026859Y005880D01*
X026909Y005930D01*
X026960Y005880D01*
X026960Y005730D01*
X026859Y005730D02*
X026859Y005880D01*
X026759Y005930D02*
X026759Y005730D01*
X027091Y005780D02*
X027091Y005880D01*
X027141Y005930D01*
X027241Y005930D01*
X027291Y005880D01*
X027291Y005830D01*
X027091Y005830D01*
X027091Y005780D02*
X027141Y005730D01*
X027241Y005730D01*
X027472Y005780D02*
X027522Y005730D01*
X027472Y005780D02*
X027472Y005980D01*
X027422Y005930D02*
X027522Y005930D01*
X027643Y005880D02*
X027693Y005930D01*
X027793Y005930D01*
X027843Y005880D01*
X027843Y005830D01*
X027643Y005830D01*
X027643Y005780D02*
X027643Y005880D01*
X027643Y005780D02*
X027693Y005730D01*
X027793Y005730D01*
X027975Y005730D02*
X027975Y005930D01*
X028075Y005930D02*
X028125Y005930D01*
X028075Y005930D02*
X027975Y005830D01*
X025136Y005930D02*
X024986Y005930D01*
X024936Y005880D01*
X024805Y005730D02*
X024655Y005730D01*
X024605Y005780D01*
X024473Y005930D02*
X024373Y006030D01*
X024273Y005930D01*
D12*
X023033Y006651D02*
X022783Y006401D01*
X022283Y006401D01*
X022033Y006651D01*
X022033Y007151D01*
X022283Y007401D01*
X022033Y007651D01*
X022033Y008151D01*
X022283Y008401D01*
X022033Y008651D01*
X022033Y009151D01*
X022283Y009401D01*
X022033Y009651D01*
X022033Y010151D01*
X022283Y010401D01*
X022033Y010651D01*
X022033Y011151D01*
X022283Y011401D01*
X022033Y011651D01*
X022033Y012151D01*
X022283Y012401D01*
X022783Y012401D01*
X023033Y012151D01*
X023033Y011651D01*
X022783Y011401D01*
X023033Y011151D01*
X023033Y010651D01*
X022783Y010401D01*
X023033Y010151D01*
X023033Y009651D01*
X022783Y009401D01*
X023033Y009151D01*
X023033Y008651D01*
X022783Y008401D01*
X023033Y008151D01*
X023033Y007651D01*
X022783Y007401D01*
X023033Y007151D01*
X023033Y006651D01*
X025155Y006922D02*
X025155Y007181D01*
X025155Y006922D02*
X025217Y006922D01*
X026275Y006922D02*
X026336Y006922D01*
X026336Y007181D01*
X026934Y006813D02*
X026958Y006813D01*
X027380Y007840D02*
X027380Y008000D01*
X027487Y008107D01*
X027487Y008160D01*
X027380Y008000D02*
X027273Y008107D01*
X027273Y008160D01*
X026336Y008103D02*
X026336Y007845D01*
X025943Y007749D02*
X025945Y007761D01*
X025950Y007772D01*
X025959Y007781D01*
X025970Y007786D01*
X025982Y007788D01*
X025994Y007786D01*
X026005Y007781D01*
X026014Y007772D01*
X026019Y007761D01*
X026021Y007749D01*
X026019Y007737D01*
X026014Y007726D01*
X026005Y007717D01*
X025994Y007712D01*
X025982Y007710D01*
X025970Y007712D01*
X025959Y007717D01*
X025950Y007726D01*
X025945Y007737D01*
X025943Y007749D01*
X025155Y007845D02*
X025155Y008103D01*
X025217Y008103D01*
X026275Y008103D02*
X026336Y008103D01*
X028693Y008470D02*
X028747Y008470D01*
X028747Y008523D01*
X028693Y008523D01*
X028693Y008470D01*
X028387Y008840D02*
X028173Y008840D01*
X028173Y008893D01*
X028387Y009107D01*
X028387Y009160D01*
X028173Y009160D01*
X026646Y009125D02*
X026646Y009101D01*
X025346Y009101D02*
X025346Y009125D01*
X029123Y009790D02*
X029337Y010110D01*
X029123Y010110D02*
X029337Y009790D01*
D13*
X025346Y010513D03*
X024546Y010513D03*
D14*
X024561Y012735D02*
X024445Y012735D01*
X024386Y012793D01*
X024386Y012910D01*
X024445Y012969D01*
X024561Y012969D01*
X024620Y012910D01*
X024620Y012793D01*
X024561Y012735D01*
X024773Y012735D02*
X024773Y012969D01*
X024890Y012969D02*
X024948Y012969D01*
X024890Y012969D02*
X024773Y012852D01*
X025095Y012852D02*
X025329Y012852D01*
X025329Y012910D01*
X025270Y012969D01*
X025154Y012969D01*
X025095Y012910D01*
X025095Y012793D01*
X025154Y012735D01*
X025270Y012735D01*
X025869Y012735D02*
X026102Y012735D01*
X026256Y012793D02*
X026314Y012852D01*
X026489Y012852D01*
X026489Y012910D02*
X026489Y012735D01*
X026314Y012735D01*
X026256Y012793D01*
X026314Y012969D02*
X026431Y012969D01*
X026489Y012910D01*
X026642Y012969D02*
X026817Y012969D01*
X026876Y012910D01*
X026876Y012793D01*
X026817Y012735D01*
X026642Y012735D01*
X026642Y013085D01*
X027029Y012910D02*
X027087Y012969D01*
X027263Y012969D01*
X027204Y012852D02*
X027087Y012852D01*
X027029Y012910D01*
X027204Y012852D02*
X027263Y012793D01*
X027204Y012735D01*
X027029Y012735D01*
X025869Y012735D02*
X025869Y013085D01*
X024245Y012735D02*
X024129Y012735D01*
X024187Y012735D02*
X024187Y013085D01*
X024129Y013085D01*
X023975Y012910D02*
X023917Y012969D01*
X023742Y012969D01*
X023742Y012618D01*
X023742Y012735D02*
X023917Y012735D01*
X023975Y012793D01*
X023975Y012910D01*
X023589Y012969D02*
X023355Y012735D01*
X023202Y012735D02*
X022968Y012735D01*
X022968Y013085D01*
X023202Y013085D01*
X023355Y012969D02*
X023589Y012735D01*
X023085Y012910D02*
X022968Y012910D01*
D15*
X028933Y009300D02*
X029233Y009600D01*
X029533Y009300D01*
X029233Y009600D02*
X029233Y008000D01*
X027633Y008000D01*
X027933Y007700D01*
X027633Y008000D02*
X027933Y008300D01*
X028493Y008500D02*
X028495Y008531D01*
X028501Y008561D01*
X028511Y008590D01*
X028524Y008618D01*
X028541Y008644D01*
X028561Y008667D01*
X028583Y008688D01*
X028609Y008705D01*
X028636Y008719D01*
X028665Y008730D01*
X028695Y008737D01*
X028725Y008740D01*
X028756Y008739D01*
X028786Y008734D01*
X028816Y008725D01*
X028844Y008713D01*
X028870Y008697D01*
X028894Y008678D01*
X028916Y008656D01*
X028934Y008631D01*
X028949Y008604D01*
X028961Y008576D01*
X028969Y008546D01*
X028973Y008515D01*
X028973Y008485D01*
X028969Y008454D01*
X028961Y008424D01*
X028949Y008396D01*
X028934Y008369D01*
X028916Y008344D01*
X028894Y008322D01*
X028870Y008303D01*
X028844Y008287D01*
X028816Y008275D01*
X028786Y008266D01*
X028756Y008261D01*
X028725Y008260D01*
X028695Y008263D01*
X028665Y008270D01*
X028636Y008281D01*
X028609Y008295D01*
X028583Y008312D01*
X028561Y008333D01*
X028541Y008356D01*
X028524Y008382D01*
X028511Y008410D01*
X028501Y008439D01*
X028495Y008469D01*
X028493Y008500D01*
M02*
